{"title":"The.Devils.Advocate.1997.480p.BRRip.XviD.DiN","uid":12314605,"size":2221298152,"categoryP":"video","categoryS":"movies","magnet":"?xt=urn:btih:a2d3905c297e5c1020f87eaece4a6509a4d18030&amp;dn=The.Devils.Advocate.1997.480p.BRRip.XviD.DiN&amp;tr=udp%3A%2F%2Ftracker.openbittorrent.com%3A80&amp;tr=udp%3A%2F%2Fopen.demonii.com%3A1337&amp;tr=udp%3A%2F%2Ftracker.coppersurfer.tk%3A6969&amp;tr=udp%3A%2F%2Fexodus.desync.com%3A6969","seeders":0,"leechers":0,"uploader":"nicukent","files":3,"time":1440966881,"description":" &lt;a href=&quot;http://i.imgur.com/MeFU9cB.jpg&quot; rel=&quot;nofollow&quot; target=&quot;_NEW&quot;&gt;http://i.imgur.com/MeFU9cB.jpg&lt;/a&gt;\n\n\nGeneral\n\nComplete name                            : The.Devils.Advocate.1997.480p.BRRip.XviD-DiN\nFormat                                   : AVI\nFormat/Info                              : Audio Video Interleave\nFormat profile                           : OpenDML\nFormat settings                          : rec\nFile size                                : 2.05 GiB\nDuration                                 : 2h 23mn\nOverall bit rate                         : 2 035 Kbps\nWriting application                      : AVI-Mux GUI 1.17.8.3, Feb 16 201019:42:50\n\nVideo\n\nID                                       : 0\nFormat                                   : MPEG-4 Visual\nFormat profile                           : Advanced Simple@L5\nFormat settings, BVOP                    : 2\nFormat settings, QPel                    : No\nFormat settings, GMC                     : No warppoints\nFormat settings, Matrix                  : Default (H.263)\nCodec ID                                 : XVID\nCodec ID/Hint                            : XviD\nDuration                                 : 2h 23mn\nBit rate                                 : 1 582 Kbps\nWidth                                    : 720 pixels\nHeight                                   : 304 pixels\nDisplay aspect ratio                     : 2.35:1\nFrame rate                               : 23.976 fps\nColor space                              : YUV\nChroma subsampling                       : 4:2:0\nBit depth                                : 8 bits\nScan type                                : Progressive\nCompression mode                         : Lossy\nBits/(Pixel*Frame)                       : 0.301\nStream size                              : 1.59 GiB (78%)\nWriting library                          : XviD 1.2.1 (UTC 2008-12-04)\n\nAudio\n\nID                                       : 1\nFormat                                   : AC-3\nFormat/Info                              : Audio Coding 3\nMode extension                           : CM (complete main)\nFormat settings, Endianness              : Big\nCodec ID                                 : 2000\nDuration                                 : 2h 23mn\nBit rate mode                            : Constant\nBit rate                                 : 448 Kbps\nChannel(s)                               : 6 channels\nChannel positions                        : Front: L C R, Side: L R, LFE\nSampling rate                            : 48.0 KHz\nBit depth                                : 16 bits\nCompression mode                         : Lossy\nStream size                              : 461 MiB (22%)\nAlignment                                : Aligned on interleaves\nInterleave, duration                     : 64 ms (1.53 video frames)\nInterleave, preload duration             : 192 ms\nTitle                                    : The.Devils.Advocate.1997.Bluray.1080p\n\n\nFor more visit...: http://www.scenexpress.org\n\n &lt;a href=&quot;\nhttp://someimage.com/P8U6o6i&quot; rel=&quot;nofollow&quot; target=&quot;_NEW&quot;&gt;\nhttp://someimage.com/P8U6o6i&lt;/a&gt; &lt;a href=&quot;\nhttp://someimage.com/At8KAHf&quot; rel=&quot;nofollow&quot; target=&quot;_NEW&quot;&gt;\nhttp://someimage.com/At8KAHf&lt;/a&gt; &lt;a href=&quot;\nhttp://someimage.com/8asSDqI&quot; rel=&quot;nofollow&quot; target=&quot;_NEW&quot;&gt;\nhttp://someimage.com/8asSDqI&lt;/a&gt; &lt;a href=&quot;\nhttp://someimage.com/KJExFdh&quot; rel=&quot;nofollow&quot; target=&quot;_NEW&quot;&gt;\nhttp://someimage.com/KJExFdh&lt;/a&gt;","torrent":{"xt":"urn:btih:a2d3905c297e5c1020f87eaece4a6509a4d18030","amp;dn":"The.Devils.Advocate.1997.480p.BRRip.XviD.DiN","amp;tr":["udp%3A%2F%2Ftracker.openbittorrent.com%3A80","udp%3A%2F%2Fopen.demonii.com%3A1337","udp%3A%2F%2Ftracker.coppersurfer.tk%3A6969","udp%3A%2F%2Fexodus.desync.com%3A6969"],"infoHash":"a2d3905c297e5c1020f87eaece4a6509a4d18030","infoHashBuffer":{"type":"Buffer","data":[162,211,144,92,41,126,92,16,32,248,126,174,206,74,101,9,164,209,128,48]},"announce":[],"urlList":[]}}